HIERARCHY
ROOT Hips
{
	OFFSET -318.825958 -575.233643 89.265579
	CHANNELS 6 Xposition Yposition Zposition Zrotation Yrotation Xrotation
	JOINT Spine
	{
		OFFSET 0.000000 2.080078 8.814247
		CHANNELS 6 Xposition Yposition Zposition Zrotation Yrotation Xrotation
		JOINT Spine1
		{
			OFFSET 0.000000 0.000000 8.844139
			CHANNELS 6 Xposition Yposition Zposition Zrotation Yrotation Xrotation
			JOINT Spine2
			{
				OFFSET 0.000000 0.000000 11.682266
				CHANNELS 6 Xposition Yposition Zposition Zrotation Yrotation Xrotation
				JOINT Spine3
				{
					OFFSET 0.000000 0.000000 11.746704
					CHANNELS 6 Xposition Yposition Zposition Zrotation Yrotation Xrotation
					JOINT Neck
					{
						OFFSET 0.000000 0.000000 17.658264
						CHANNELS 6 Xposition Yposition Zposition Zrotation Yrotation Xrotation
						JOINT Neck1
						{
							OFFSET 0.000000 0.000000 5.101517
							CHANNELS 6 Xposition Yposition Zposition Zrotation Yrotation Xrotation
							JOINT Head
							{
								OFFSET 0.000000 0.000000 5.101517
								CHANNELS 6 Xposition Yposition Zposition Zrotation Yrotation Xrotation
								JOINT HeadEnd
								{
									OFFSET 0.000000 0.000000 11.655090
									CHANNELS 6 Xposition Yposition Zposition Zrotation Yrotation Xrotation
									End Site
									{
										OFFSET 0.000000 0.000000 0.100006
									}
								}
							}
						}
					}
					JOINT RightShoulder
					{
						OFFSET -2.625397 0.000000 11.175217
						CHANNELS 6 Xposition Yposition Zposition Zrotation Yrotation Xrotation
						JOINT RightArm
						{
							OFFSET 0.000000 0.000000 10.434723
							CHANNELS 6 Xposition Yposition Zposition Zrotation Yrotation Xrotation
							JOINT RightForeArm
							{
								OFFSET 0.000000 0.000000 29.628418
								CHANNELS 6 Xposition Yposition Zposition Zrotation Yrotation Xrotation
								JOINT RightHand
								{
									OFFSET 0.000000 0.000000 22.857605
									CHANNELS 6 Xposition Yposition Zposition Zrotation Yrotation Xrotation
									JOINT RightHandThumb1
									{
										OFFSET -2.867310 -2.944275 3.959564
										CHANNELS 6 Xposition Yposition Zposition Zrotation Yrotation Xrotation
										JOINT RightHandThumb2
										{
											OFFSET 0.000000 0.000000 3.350403
											CHANNELS 6 Xposition Yposition Zposition Zrotation Yrotation Xrotation
											JOINT RightHandThumb3
											{
												OFFSET 0.000000 0.000000 3.756516
												CHANNELS 6 Xposition Yposition Zposition Zrotation Yrotation Xrotation
												JOINT RightHandThumb4
												{
													OFFSET 0.000000 0.000000 3.147339
													CHANNELS 6 Xposition Yposition Zposition Zrotation Yrotation Xrotation
													End Site
													{
														OFFSET 0.000000 0.000000 0.100006
													}
												}
											}
										}
									}
									JOINT RightHandIndex1
									{
										OFFSET -0.086761 -2.345276 10.030899
										CHANNELS 6 Xposition Yposition Zposition Zrotation Yrotation Xrotation
										JOINT RightHandIndex2
										{
											OFFSET 0.000000 0.000000 4.061096
											CHANNELS 6 Xposition Yposition Zposition Zrotation Yrotation Xrotation
											JOINT RightHandIndex3
											{
												OFFSET 0.000000 0.000000 3.248871
												CHANNELS 6 Xposition Yposition Zposition Zrotation Yrotation Xrotation
												JOINT RightHandIndex4
												{
													OFFSET 0.000000 0.000000 2.639709
													CHANNELS 6 Xposition Yposition Zposition Zrotation Yrotation Xrotation
													End Site
													{
														OFFSET 0.000000 0.000000 0.100006
													}
												}
											}
										}
									}
									JOINT RightHandMiddle1
									{
										OFFSET 0.104095 -0.006775 9.502945
										CHANNELS 6 Xposition Yposition Zposition Zrotation Yrotation Xrotation
										JOINT RightHandMiddle2
										{
											OFFSET 0.000000 0.000000 4.568726
											CHANNELS 6 Xposition Yposition Zposition Zrotation Yrotation Xrotation
											JOINT RightHandMiddle3
											{
												OFFSET 0.000000 0.000000 3.654984
												CHANNELS 6 Xposition Yposition Zposition Zrotation Yrotation Xrotation
												JOINT RightHandMiddle4
												{
													OFFSET 0.000000 0.000000 2.741241
													CHANNELS 6 Xposition Yposition Zposition Zrotation Yrotation Xrotation
													End Site
													{
														OFFSET 0.000000 0.000000 0.100006
													}
												}
											}
										}
									}
									JOINT RightHandRing1
									{
										OFFSET 0.086761 2.267456 8.921707
										CHANNELS 6 Xposition Yposition Zposition Zrotation Yrotation Xrotation
										JOINT RightHandRing2
										{
											OFFSET 0.000000 0.000000 4.061096
											CHANNELS 6 Xposition Yposition Zposition Zrotation Yrotation Xrotation
											JOINT RightHandRing3
											{
												OFFSET 0.000000 0.000000 3.654984
												CHANNELS 6 Xposition Yposition Zposition Zrotation Yrotation Xrotation
												JOINT RightHandRing4
												{
													OFFSET 0.000000 0.000000 2.741241
													CHANNELS 6 Xposition Yposition Zposition Zrotation Yrotation Xrotation
													End Site
													{
														OFFSET 0.000000 0.000000 0.100006
													}
												}
											}
										}
									}
									JOINT RightHandPinky1
									{
										OFFSET -0.173492 4.467224 7.976990
										CHANNELS 6 Xposition Yposition Zposition Zrotation Yrotation Xrotation
										JOINT RightHandPinky2
										{
											OFFSET 0.000000 0.000000 3.350403
											CHANNELS 6 Xposition Yposition Zposition Zrotation Yrotation Xrotation
											JOINT RightHandPinky3
											{
												OFFSET 0.000000 0.000000 2.842758
												CHANNELS 6 Xposition Yposition Zposition Zrotation Yrotation Xrotation
												JOINT RightHandPinky4
												{
													OFFSET 0.000000 0.000000 2.639709
													CHANNELS 6 Xposition Yposition Zposition Zrotation Yrotation Xrotation
													End Site
													{
														OFFSET 0.000000 0.000000 0.100006
													}
												}
											}
										}
									}
									JOINT RightForeArmEnd
									{
										OFFSET 0.000000 0.000000 0.000000
										CHANNELS 6 Xposition Yposition Zposition Zrotation Yrotation Xrotation
										End Site
										{
											OFFSET 0.000000 0.000000 0.100006
										}
									}
								}
								JOINT RightArmEnd
								{
									OFFSET 0.000000 0.000000 0.000000
									CHANNELS 6 Xposition Yposition Zposition Zrotation Yrotation Xrotation
									End Site
									{
										OFFSET 0.000000 0.000000 0.100006
									}
								}
							}
						}
					}
					JOINT LeftShoulder
					{
						OFFSET 2.625397 0.000000 11.175217
						CHANNELS 6 Xposition Yposition Zposition Zrotation Yrotation Xrotation
						JOINT LeftArm
						{
							OFFSET 0.000000 0.000000 10.813629
							CHANNELS 6 Xposition Yposition Zposition Zrotation Yrotation Xrotation
							JOINT LeftForeArm
							{
								OFFSET 0.000000 0.000000 28.724777
								CHANNELS 6 Xposition Yposition Zposition Zrotation Yrotation Xrotation
								JOINT LeftHand
								{
									OFFSET 0.644379 0.328857 25.716171
									CHANNELS 6 Xposition Yposition Zposition Zrotation Yrotation Xrotation
									JOINT LeftHandThumb1
									{
										OFFSET 2.867310 -2.944275 3.959564
										CHANNELS 6 Xposition Yposition Zposition Zrotation Yrotation Xrotation
										JOINT LeftHandThumb2
										{
											OFFSET 0.000000 0.000000 3.350403
											CHANNELS 6 Xposition Yposition Zposition Zrotation Yrotation Xrotation
											JOINT LeftHandThumb3
											{
												OFFSET 0.000000 0.000000 3.756516
												CHANNELS 6 Xposition Yposition Zposition Zrotation Yrotation Xrotation
												JOINT LeftHandThumb4
												{
													OFFSET 0.000000 0.000000 3.100006
													CHANNELS 6 Xposition Yposition Zposition Zrotation Yrotation Xrotation
													End Site
													{
														OFFSET 0.000000 0.000000 0.100006
													}
												}
											}
										}
									}
									JOINT LeftHandIndex1
									{
										OFFSET 0.086761 -2.345276 10.030899
										CHANNELS 6 Xposition Yposition Zposition Zrotation Yrotation Xrotation
										JOINT LeftHandIndex2
										{
											OFFSET 0.000000 0.000000 4.061096
											CHANNELS 6 Xposition Yposition Zposition Zrotation Yrotation Xrotation
											JOINT LeftHandIndex3
											{
												OFFSET 0.000000 0.000000 3.248871
												CHANNELS 6 Xposition Yposition Zposition Zrotation Yrotation Xrotation
												JOINT LeftHandIndex4
												{
													OFFSET 0.000000 0.000000 2.639709
													CHANNELS 6 Xposition Yposition Zposition Zrotation Yrotation Xrotation
													End Site
													{
														OFFSET 0.000000 0.000000 0.100006
													}
												}
											}
										}
									}
									JOINT LeftHandMiddle1
									{
										OFFSET -0.104095 -0.006775 9.502945
										CHANNELS 6 Xposition Yposition Zposition Zrotation Yrotation Xrotation
										JOINT LeftHandMiddle2
										{
											OFFSET 0.000000 0.000000 4.568726
											CHANNELS 6 Xposition Yposition Zposition Zrotation Yrotation Xrotation
											JOINT LeftHandMiddle3
											{
												OFFSET 0.000000 0.000000 3.654984
												CHANNELS 6 Xposition Yposition Zposition Zrotation Yrotation Xrotation
												JOINT LeftHandMiddle4
												{
													OFFSET 0.000000 0.000000 2.741241
													CHANNELS 6 Xposition Yposition Zposition Zrotation Yrotation Xrotation
													End Site
													{
														OFFSET 0.000000 0.000000 0.100006
													}
												}
											}
										}
									}
									JOINT LeftHandRing1
									{
										OFFSET -0.086761 2.267456 8.921707
										CHANNELS 6 Xposition Yposition Zposition Zrotation Yrotation Xrotation
										JOINT LeftHandRing2
										{
											OFFSET 0.000000 0.000000 4.061096
											CHANNELS 6 Xposition Yposition Zposition Zrotation Yrotation Xrotation
											JOINT LeftHandRing3
											{
												OFFSET 0.000000 0.000000 3.654984
												CHANNELS 6 Xposition Yposition Zposition Zrotation Yrotation Xrotation
												JOINT LeftHandRing4
												{
													OFFSET 0.000000 0.000000 2.741241
													CHANNELS 6 Xposition Yposition Zposition Zrotation Yrotation Xrotation
													End Site
													{
														OFFSET 0.000000 0.000000 0.100006
													}
												}
											}
										}
									}
									JOINT LeftHandPinky1
									{
										OFFSET 0.173492 4.467224 7.976990
										CHANNELS 6 Xposition Yposition Zposition Zrotation Yrotation Xrotation
										JOINT LeftHandPinky2
										{
											OFFSET 0.000000 0.000000 3.350403
											CHANNELS 6 Xposition Yposition Zposition Zrotation Yrotation Xrotation
											JOINT LeftHandPinky3
											{
												OFFSET 0.000000 0.000000 2.842758
												CHANNELS 6 Xposition Yposition Zposition Zrotation Yrotation Xrotation
												JOINT LeftHandPinky4
												{
													OFFSET 0.000000 0.000000 2.639709
													CHANNELS 6 Xposition Yposition Zposition Zrotation Yrotation Xrotation
													End Site
													{
														OFFSET 0.000000 0.000000 0.100006
													}
												}
											}
										}
									}
									JOINT LeftForeArmEnd
									{
										OFFSET 0.000000 0.000000 0.000000
										CHANNELS 6 Xposition Yposition Zposition Zrotation Yrotation Xrotation
										End Site
										{
											OFFSET 0.000000 0.000000 0.100006
										}
									}
								}
								JOINT LeftArmEnd
								{
									OFFSET 0.000000 0.000000 0.000000
									CHANNELS 6 Xposition Yposition Zposition Zrotation Yrotation Xrotation
									End Site
									{
										OFFSET 0.000000 0.000000 0.100006
									}
								}
							}
						}
					}
				}
			}
		}
	}
	JOINT RightUpLeg
	{
		OFFSET -11.289948 0.000000 0.000000
		CHANNELS 6 Xposition Yposition Zposition Zrotation Yrotation Xrotation
		JOINT RightLeg
		{
			OFFSET 0.000000 0.000000 -38.200329
			CHANNELS 6 Xposition Yposition Zposition Zrotation Yrotation Xrotation
			JOINT RightFoot
			{
				OFFSET 0.000000 0.000000 -39.900856
				CHANNELS 6 Xposition Yposition Zposition Zrotation Yrotation Xrotation
				JOINT RightToeBase
				{
					OFFSET 0.000000 -15.261658 0.000001
					CHANNELS 6 Xposition Yposition Zposition Zrotation Yrotation Xrotation
					JOINT RightToeBaseEnd
					{
						OFFSET 0.000000 -7.370728 0.000000
						CHANNELS 6 Xposition Yposition Zposition Zrotation Yrotation Xrotation
						End Site
						{
							OFFSET 0.000000 0.000000 0.100000
						}
					}
				}
				JOINT RightLegEnd
				{
					OFFSET 0.000000 0.000000 0.000000
					CHANNELS 6 Xposition Yposition Zposition Zrotation Yrotation Xrotation
					End Site
					{
						OFFSET 0.000000 0.000000 0.100000
					}
				}
			}
			JOINT RightUpLegEnd
			{
				OFFSET 0.000000 0.000000 0.000000
				CHANNELS 6 Xposition Yposition Zposition Zrotation Yrotation Xrotation
				End Site
				{
					OFFSET 0.000000 0.000000 0.099998
				}
			}
		}
	}
	JOINT LeftUpLeg
	{
		OFFSET 11.315674 0.000000 0.000000
		CHANNELS 6 Xposition Yposition Zposition Zrotation Yrotation Xrotation
		JOINT LeftLeg
		{
			OFFSET 0.000000 0.000000 -38.200329
			CHANNELS 6 Xposition Yposition Zposition Zrotation Yrotation Xrotation
			JOINT LeftFoot
			{
				OFFSET 0.000000 0.000000 -39.900856
				CHANNELS 6 Xposition Yposition Zposition Zrotation Yrotation Xrotation
				JOINT LeftToeBase
				{
					OFFSET 0.000000 -15.261658 0.000001
					CHANNELS 6 Xposition Yposition Zposition Zrotation Yrotation Xrotation
					JOINT LeftToeBaseEnd
					{
						OFFSET 0.000000 -7.539978 0.000000
						CHANNELS 6 Xposition Yposition Zposition Zrotation Yrotation Xrotation
						End Site
						{
							OFFSET 0.000000 0.000000 0.100000
						}
					}
				}
				JOINT LeftLegEnd
				{
					OFFSET 0.000000 0.000000 0.000000
					CHANNELS 6 Xposition Yposition Zposition Zrotation Yrotation Xrotation
					End Site
					{
						OFFSET 0.000000 0.000000 0.100000
					}
				}
			}
			JOINT LeftUpLegEnd
			{
				OFFSET 0.000000 0.000000 0.000000
				CHANNELS 6 Xposition Yposition Zposition Zrotation Yrotation Xrotation
				End Site
				{
					OFFSET 0.000000 0.000000 0.099998
				}
			}
		}
	}
}
MOTION
Frames: 2
Frame Time: 0.016667
0.089020 1.966125 88.717438 -0.132392 -0.096735 -11.621452 0.000001 2.080101 8.814270 0.280508 -0.282602 7.069529 -0.000009 0.000006 8.844139 0.148082 0.406316 2.498714 -0.000014 0.000063 11.682251 0.175270 0.032197 5.338294 -0.000015 -0.000000 11.746699 0.446161 -0.129534 4.391943 -0.000006 -0.000017 17.658262 -2.343183 -1.236872 3.673703 -0.000008 -0.000033 5.101517 -2.201573 0.392851 -3.652628 -0.000013 0.000031 5.101570 -0.864155 -0.580604 -20.454578 -0.000000 -0.000003 11.655046 -0.000000 0.000000 0.000001 -2.625403 0.000001 11.175214 9.182520 -87.201230 0.234449 0.000011 0.000017 10.434731 -19.427561 -58.191388 17.113546 0.000015 0.000004 29.628380 14.457361 0.942883 88.978432 -0.000046 0.000044 22.857597 14.902061 8.704329 2.626737 -2.867355 -2.944305 3.959564 32.315507 -13.910430 56.898426 0.000010 0.000011 3.350431 -5.383803 4.498550 -10.250354 -0.000001 -0.000065 3.756531 -3.652170 3.227398 -7.070010 -0.000001 -0.000043 3.147346 -0.000001 0.000001 -0.000003 -0.086792 -2.345291 10.030907 -5.664640 18.267011 14.793604 -0.000043 0.000019 4.061103 0.704362 0.000284 0.000476 -0.000012 -0.000013 3.248883 0.511087 -0.000018 -0.000244 -0.000007 -0.000010 2.639706 0.000002 0.000001 -0.000001 0.104057 -0.006763 9.502945 -0.923603 15.266065 8.268587 -0.000004 -0.000067 4.568746 0.706428 -0.000331 0.000627 -0.000001 -0.000032 3.655010 0.500901 -0.000003 -0.007997 -0.000045 -0.000002 2.741253 0.000000 0.000000 0.000000 0.086765 2.267480 8.921714 6.618246 11.508349 -1.465494 -0.000023 0.000010 4.061090 -1.035315 0.000236 0.000023 -0.000008 0.000011 3.654987 -0.031213 -0.000009 0.000033 0.000004 -0.000004 2.741248 0.000001 -0.000001 0.000000 -0.173477 4.467228 7.976971 13.819912 9.864228 -14.226038 0.000004 -0.000002 3.350404 -2.017713 0.000012 -0.000028 0.000010 -0.000014 2.842775 -0.015127 0.000000 -0.000008 -0.000001 -0.000000 2.639731 -0.000000 -0.000001 0.000000 0.000000 0.000009 -0.000015 -0.000002 0.000000 -0.000000 -0.000029 0.000011 0.000004 -0.000002 0.000001 0.000000 2.625420 0.000026 11.175198 -4.219535 82.179750 -0.443340 0.000000 0.000010 10.813629 -4.291190 69.306578 -18.414421 -0.000023 0.000000 28.724810 -18.212015 -0.512792 104.748409 0.644363 0.328869 25.716171 -20.174121 16.445024 -10.323842 2.867249 -2.944290 3.959572 -31.863881 15.721390 53.915826 -0.000027 -0.000008 3.350391 9.281707 -6.858993 -17.127428 -0.000040 -0.000084 3.756540 6.223727 -5.062883 -11.762405 -0.000006 -0.000004 3.100010 0.000001 0.000001 -0.000000 0.086722 -2.345272 10.030884 -7.216506 6.182116 25.978143 -0.000034 0.000002 4.061098 0.583418 1.699907 -0.236395 -0.000041 0.000029 3.248894 0.108378 1.699923 -0.235657 0.000003 -0.000000 2.639716 0.000000 -0.000001 0.000000 -0.104134 -0.006866 9.502983 -2.382528 6.707400 13.076506 -0.000008 0.000009 4.568719 0.574317 4.191017 -0.214002 -0.000009 0.000012 3.654999 -0.003262 4.191092 -0.219688 -0.000002 -0.000005 2.741254 0.000001 -0.000001 -0.000000 -0.086781 2.267364 8.921762 7.236549 14.450865 -0.340992 0.000009 -0.000002 4.061090 -0.943671 10.204288 0.630820 -0.000007 0.000029 3.654998 0.056286 10.204274 0.630730 -0.000014 0.000009 2.741232 -0.000000 0.000003 0.000001 0.173470 4.467178 7.977058 18.480151 28.094004 -13.448314 0.000008 -0.000023 3.350422 -1.489780 17.014409 3.410059 0.000011 -0.000031 2.842777 0.510217 17.014414 3.410050 -0.000014 0.000008 2.639693 -0.000000 -0.000001 -0.000000 0.000005 0.000009 -0.000018 -0.000001 -0.000000 0.000002 0.000006 -0.000001 -0.000007 0.000000 0.000001 -0.000001 -11.289950 -0.000023 0.000027 -10.774710 1.469016 14.153821 -0.000001 -0.000010 -38.200333 -0.580235 0.056456 6.314681 -0.000019 -0.000019 -39.900864 -7.617463 2.422682 17.441894 0.000014 -15.261645 -0.000003 0.651788 0.994191 -18.774781 0.000004 -7.370719 0.000001 -0.000001 0.000000 -0.000000 -0.000013 -0.000010 0.000000 0.000002 -0.000001 0.000001 0.000004 0.000001 0.000001 0.000000 0.000000 0.000002 11.315679 -0.000022 0.000011 -5.376526 1.600482 8.886973 0.000015 -0.000033 -38.200325 0.364175 -0.071212 11.901961 -0.000014 -0.000160 -39.900856 -2.591205 -4.228647 16.687742 -0.000015 -15.261707 0.000005 -0.317752 -0.123042 -21.040061 -0.000006 -7.539923 0.000000 0.000001 0.000000 -0.000000 0.000004 0.000062 -0.000002 -0.000000 0.000000 -0.000001 -0.000001 0.000002 -0.000008 -0.000000 -0.000000 -0.000000 
0.088226 1.960693 88.717476 -0.093251 -0.096766 -11.621829 -0.000000 2.080058 8.814237 0.281847 -0.294707 7.090184 0.000000 0.000015 8.844142 0.145004 0.399195 2.491615 0.000010 0.000025 11.682273 0.209157 0.048296 5.338565 -0.000019 0.000020 11.746698 0.461122 -0.112763 4.370411 -0.000011 -0.000084 17.658268 -2.323041 -1.300717 3.512108 0.000023 0.000004 5.101498 -2.165906 0.357570 -3.742028 -0.000002 0.000034 5.101537 -0.861632 -0.597332 -20.430329 -0.000008 0.000001 11.655082 -0.000000 0.000000 -0.000001 -2.625393 -0.000047 11.175220 9.249419 -87.181921 0.232384 0.000034 -0.000017 10.434685 -18.742857 -57.597435 16.592129 0.000001 -0.000007 29.628382 14.251028 0.944649 89.321676 -0.000027 0.000005 22.857613 16.098443 7.925932 3.271206 -2.867340 -2.944305 3.959572 32.315514 -13.910439 56.898440 0.000008 0.000002 3.350397 -5.383807 4.498544 -10.250413 -0.000042 0.000010 3.756525 -3.652164 3.227398 -7.069992 0.000011 -0.000052 3.147349 0.000001 0.000002 -0.000003 -0.086784 -2.345308 10.030891 -5.598461 18.700740 14.937820 -0.000032 -0.000015 4.061090 0.704639 0.000307 0.000476 0.000005 -0.000001 3.248889 0.511814 -0.000019 -0.000240 0.000007 0.000008 2.639704 0.000000 0.000001 -0.000002 0.104055 -0.006771 9.502945 -0.920422 15.285012 8.315339 -0.000000 -0.000049 4.568741 0.706618 -0.000239 0.000636 -0.000007 -0.000089 3.654990 0.502255 -0.000006 -0.008035 -0.000029 0.000008 2.741270 -0.000001 -0.000001 0.000001 0.086761 2.267456 8.921722 6.458760 10.727423 -1.742764 -0.000004 0.000013 4.061101 -1.031722 0.000224 0.000020 0.000013 0.000008 3.654983 -0.028087 -0.000007 0.000030 -0.000004 0.000004 2.741250 -0.000001 -0.000001 0.000000 -0.173488 4.467220 7.976986 13.402774 8.235524 -15.306773 0.000005 0.000007 3.350409 -2.013359 0.052321 -0.001861 -0.000042 0.000030 2.842762 -0.011406 -0.028190 -0.000003 -0.000011 -0.000001 2.639706 -0.000001 0.000001 -0.000001 -0.000005 -0.000005 -0.000014 0.000001 -0.000000 -0.000000 0.000005 0.000013 0.000006 -0.000002 0.000001 -0.000000 2.625381 -0.000052 11.175209 -4.233883 82.182188 -0.445632 0.000046 0.000006 10.813625 -4.838511 68.698931 -18.955761 0.000011 0.000031 28.724810 -18.252484 -0.537204 104.889214 0.644371 0.328843 25.716194 -21.171276 17.064340 -10.499313 2.867336 -2.944321 3.959557 -31.863871 15.721396 53.915847 0.000008 -0.000011 3.350418 9.281710 -6.858988 -17.127516 -0.000069 -0.000046 3.756575 6.223710 -5.062902 -11.762360 -0.000043 0.000003 3.100026 -0.000001 -0.000001 0.000002 0.086714 -2.345291 10.030903 -7.160204 6.300777 26.802390 0.000003 -0.000022 4.061114 0.581176 1.705543 -0.237343 -0.000002 0.000024 3.248868 0.104501 1.706526 -0.236606 0.000005 -0.000005 2.639730 0.000001 0.000001 -0.000000 -0.104134 -0.006882 9.502960 -2.275303 7.319468 13.618187 -0.000035 -0.000022 4.568734 0.571904 4.601985 -0.235153 0.000015 0.000022 3.655000 -0.003737 4.602032 -0.241223 0.000001 0.000003 2.741262 -0.000000 0.000002 0.000000 -0.086819 2.267434 8.921737 7.578989 16.016082 0.392450 -0.000012 0.000015 4.061100 -0.930041 11.353298 0.703661 0.000016 0.000028 3.654997 0.069937 11.353300 0.703640 -0.000009 -0.000005 2.741239 0.000000 -0.000002 0.000000 0.173500 4.467148 7.977005 19.448561 30.534074 -12.157096 0.000011 -0.000027 3.350414 -1.367450 18.859981 3.807202 0.000012 -0.000031 2.842785 0.632559 18.859916 3.807202 -0.000010 0.000003 2.639704 -0.000002 -0.000001 -0.000000 0.000018 0.000009 -0.000026 -0.000002 -0.000000 0.000001 0.000029 -0.000014 -0.000012 0.000002 0.000001 0.000000 -11.289943 -0.000027 0.000008 -10.781609 1.469648 14.156876 0.000004 0.000028 -38.200325 -0.580525 0.056423 6.313142 -0.000018 -0.000008 -39.900848 -7.650269 2.417331 17.444503 0.000013 -15.261654 0.000008 0.651743 0.994674 -18.778608 0.000010 -7.370732 0.000001 0.000001 -0.000000 -0.000001 0.000014 0.000007 0.000002 -0.000001 -0.000000 -0.000000 -0.000006 0.000003 0.000003 -0.000001 0.000000 0.000001 11.315686 0.000010 -0.000010 -5.390114 1.600667 8.885926 0.000020 -0.000010 -38.200325 0.363935 -0.071274 11.900405 -0.000016 -0.000156 -39.900856 -2.617860 -4.223748 16.691630 0.000013 -15.261648 0.000016 -0.318535 -0.121870 -21.039110 0.000002 -7.539921 0.000000 0.000001 -0.000000 0.000000 -0.000002 0.000064 -0.000002 -0.000000 -0.000000 -0.000003 0.000003 -0.000000 -0.000010 0.000000 -0.000000 -0.000001 
